<svg xmlns="http://www.w3.org/2000/svg" width="25" height="25" fill="none"><path fill="currentColor" fill-rule="evenodd" d="M23.5 12.5c0 6.075-4.925 11-11 11s-11-4.925-11-11 4.925-11 11-11 11 4.925 11 11Zm1.5 0C25 19.404 19.404 25 12.5 25S0 19.404 0 12.5 5.596 0 12.5 0 25 5.596 25 12.5Zm-9.752-3.97a.75.75 0 0 1 1.06 1.061l-2.828 2.828 2.828 2.829a.75.75 0 1 1-1.06 1.06l-2.829-2.828-2.828 2.828a.75.75 0 0 1-1.06-1.06l2.828-2.829L8.53 9.591a.75.75 0 0 1 1.061-1.06l2.828 2.828 2.829-2.829Z" clip-rule="evenodd"/></svg>