<svg xmlns="http://www.w3.org/2000/svg" width="20" height="20" fill="none">
  <path fill="url(#a)"
    d="M10 20a9.966 9.966 0 0 1-7.07-2.93A9.967 9.967 0 0 1 0 10a.703.703 0 1 1 1.406 0 8.58 8.58 0 0 0 2.518 6.078A8.548 8.548 0 0 0 10 18.594a8.582 8.582 0 0 0 6.078-2.518A8.549 8.549 0 0 0 18.594 10c0-1.16-.227-2.285-.676-3.346a8.605 8.605 0 0 0-1.842-2.732A8.55 8.55 0 0 0 10 1.406.703.703 0 1 1 10 0a9.937 9.937 0 0 1 7.07 2.93 9.982 9.982 0 0 1 2.143 3.177A9.936 9.936 0 0 1 19.998 10c0 1.35-.264 2.66-.785 3.893a9.93 9.93 0 0 1-2.143 3.177A9.983 9.983 0 0 1 10 20Z" />
  <defs>
    <linearGradient id="a" x1="19.998" x2="0" y1="10" y2="10" gradientUnits="userSpaceOnUse">
      <stop stop-color="#2C41FF" />
      <stop offset="1" stop-color="#2CF2FF" />
    </linearGradient>
  </defs>
</svg>
