<svg xmlns="http://www.w3.org/2000/svg" width="14" height="17" fill="none"><path fill="currentColor" fill-rule="evenodd" d="M11.461 6.969H2a.5.5 0 0 0-.5.5v6.937a.5.5 0 0 0 .5.5h9.461a.5.5 0 0 0 .5-.5V7.47a.5.5 0 0 0-.5-.5ZM2 5.469a2 2 0 0 0-2 2v6.937a2 2 0 0 0 2 2h9.461a2 2 0 0 0 2-2V7.47a2 2 0 0 0-2-2H2Z" clip-rule="evenodd"/><path fill="currentColor" fill-rule="evenodd" d="M4.024 5.23h5.414V4.185A2.695 2.695 0 0 0 6.73 1.5a2.695 2.695 0 0 0-2.707 2.684V5.23Zm-.453-2.12a1.49 1.49 0 0 0-.778-.402A4.207 4.207 0 0 1 6.731 0c2.323 0 4.206 1.873 4.206 4.184V5.73a1 1 0 0 1-1 1H3.525a1 1 0 0 1-1-1V4.162a4.153 4.153 0 0 1 .27-1.454c.299.054.568.197.777.402Zm6.282 2.11Z" clip-rule="evenodd"/></svg>