<svg xmlns="http://www.w3.org/2000/svg" width="69" height="61" fill="none">
  <path fill="currentColor" fill-rule="evenodd"
    d="M8.771.49h43.007a8.616 8.616 0 0 1 8.333 6.451H16.297a9.677 9.677 0 0 0-9.676 9.677v35.211A8.615 8.615 0 0 1 .17 43.497V9.092A8.601 8.601 0 0 1 8.77.49Zm10.483 10.752h41.433c4.573 0 8.294 3.697 8.294 8.242v33.152c0 4.545-3.764 8.064-8.333 8.064H19.254c-4.57 0-8.333-3.698-8.333-8.243V19.484c0-4.545 3.764-8.242 8.333-8.242Zm34.489 9.304a6.183 6.183 0 0 0-3.425-1.06v-.002a6.208 6.208 0 0 0-6.22 6.184 6.182 6.182 0 1 0 9.645-5.122ZM15.186 52.459c0 2.272 1.728 4.12 4.013 4.12l9.902-.001L44.288 41.48l-8.419-8.347a6.255 6.255 0 0 0-8.526-.246L15.186 43.746v8.712Zm49.18 1.576c.207-.5.314-1.036.314-1.578v-6.462l-5.978-5.073a6.214 6.214 0 0 0-7.989.022L34.978 56.578h25.575a4.122 4.122 0 0 0 3.812-2.543Z"
    clip-rule="evenodd" />
</svg>
