<svg xmlns="http://www.w3.org/2000/svg" width="17" height="19" fill="none">
  <path fill="currentColor" fill-rule="evenodd"
    d="M5.826.287c-.909 0-1.646.737-1.646 1.646v1.273H.993a.706.706 0 0 0 0 1.411h.377a1.653 1.653 0 0 0-.01.39l1.103 11.736c.08.845.79 1.492 1.64 1.492h8.324c.847 0 1.556-.643 1.638-1.486l1.147-11.736c.014-.135.01-.268-.008-.396h.378a.706.706 0 0 0 0-1.41H12.4V1.932c0-.91-.737-1.646-1.646-1.646H5.826Zm-3.06 4.588A.235.235 0 0 1 3 4.617h10.574c.139 0 .247.12.234.258L12.66 16.611a.235.235 0 0 1-.234.213H4.103a.235.235 0 0 1-.235-.214L2.765 4.875ZM5.59 1.933c0-.13.105-.235.235-.235h4.928c.13 0 .235.105.235.235v1.272H5.59V1.933Zm1.994 10.736a.706.706 0 0 0 1.411 0V7.804a.706.706 0 0 0-1.41 0v4.864Zm3.068.701a.705.705 0 0 1-.632-.772l.484-4.839a.706.706 0 0 1 1.404.14l-.484 4.84a.706.706 0 0 1-.772.631Zm-4.093-.772a.705.705 0 1 1-1.404.14L4.672 7.9a.706.706 0 1 1 1.405-.14l.483 4.84Z"
    clip-rule="evenodd" />
</svg>
