<svg xmlns="http://www.w3.org/2000/svg" width="17" height="19" fill="none"><path fill="currentColor" fill-rule="evenodd" d="M8.2 8.355c1.977 0 3.528-1.563 3.528-3.428 0-1.864-1.551-3.427-3.528-3.427S4.673 3.063 4.673 4.927c0 1.865 1.55 3.428 3.527 3.428ZM6.213 11.05a8.547 8.547 0 0 1 2.112-.263c.678 0 1.338.079 1.97.228 3.356.793 5.925 3.565 6.348 6.986.067.548-.387.998-.94.998H.946c-.552 0-1.006-.45-.938-.998.417-3.373 2.92-6.115 6.206-6.951Zm.09-1.56a5.102 5.102 0 0 0 2.022.362 5.093 5.093 0 0 0 1.854-.394c1.793-.753 3.049-2.499 3.049-4.532C13.228 2.207 10.977 0 8.2 0 5.424 0 3.173 2.206 3.173 4.927c0 2.064 1.293 3.83 3.13 4.565Zm8.729 8.009c-.695-2.966-3.417-5.212-6.707-5.212-3.291 0-6.013 2.245-6.707 5.212h13.414Z" clip-rule="evenodd"/></svg>